PathFileType	4	(X/Y/Z)	D:\TRACE\v60_Jaco2_6-2-23\ArmBodyNoDRS_DMP_1-platform.trc
DataRate	CameraRate	NumFrames	NumMarkers	Units	OrigDataRate	OrigDataStartFrame	OrigNumFrames
100.00	100.00	      68	5	mm	100.00	4651	      5315
Frame#	Time	Left_Front			Right_Front			Left_Aft			Right_Aft			Post			
		X1	Y1	Z1	X2	Y2	Z2	X3	Y3	Z3	X4	Y4	Z4	X5	Y5	Z5	

4651	46.500				780.33606	9.73060	-632.72363	-719.11169	6.31400	481.09494	698.86768	9.34886	584.08600	3.05123	1307.63831	-965.95593	
4652	46.510				780.28375	9.72590	-632.70850	-719.48749	6.71698	480.98285	698.03235	8.96053	583.46381	2.91843	1307.54663	-966.03064	
4653	46.520				780.28613	9.54818	-632.70087	-719.52789	6.65671	481.04108	698.05164	8.93681	583.50763	3.16313	1307.51733	-965.99097	
4654	46.530				780.22449	9.56772	-632.64471	-719.67389	6.81619	480.79330	698.00012	8.92340	583.51752	3.17442	1307.48193	-965.95428	
4655	46.540				780.28381	9.63912	-632.68958	-719.43182	6.70281	480.94452	698.12109	8.87003	583.51245	3.23771	1307.54065	-965.95514	
4656	46.550				780.24500	9.69192	-632.72876	-719.36926	6.76974	480.90848	698.14612	8.88082	583.45490	3.03405	1307.60925	-966.07965	
4657	46.560				780.26233	9.65761	-632.72443	-719.57410	6.94400	480.84201	698.07690	8.98951	583.45093	3.05612	1307.62012	-966.07257	
4658	46.570				780.27423	9.56042	-632.70825	-719.62177	6.87048	480.86395	698.02606	8.96766	583.49420	2.97444	1307.48474	-966.04395	
4659	46.580				780.29443	9.57373	-632.64496	-719.43207	6.52377	480.80353	698.05591	8.93322	583.49725	3.19909	1307.41492	-965.94928	
4660	46.590				780.32239	9.53624	-632.65680	-719.26575	6.24372	481.26126	698.06897	8.88031	583.51538	3.33029	1307.43591	-965.80347	
4661	46.600				780.28796	9.59986	-632.68372	-719.11908	6.28279	481.18765	698.13220	8.87708	583.47296	3.24258	1307.52515	-965.89264	
4662	46.610				780.30084	9.70986	-632.67194	-719.11853	6.34525	481.08182	698.09851	8.94875	583.45081	3.07777	1307.60498	-965.96075	
4663	46.620				780.26965	9.70233	-632.78235	-719.15118	6.30849	481.06305	698.08075	8.93643	583.44653	3.03675	1307.60889	-965.97510	
4664	46.630				780.31415	9.60889	-632.66339	-719.54230	6.69828	481.02255	698.05518	8.88174	583.48181	3.19270	1307.55701	-965.84229	
4665	46.640				780.32593	9.53509	-632.60413	-719.20160	6.20076	481.21899	698.51514	9.02208	583.99860	3.23287	1307.48083	-965.82080	
4666	46.650				780.30762	9.58840	-632.63782	-719.89368	7.39334	480.45065	698.14642	8.93639	583.52820	3.33273	1307.43689	-965.71735	
4667	46.660				780.34174	9.65959	-632.69183	-719.43250	6.83050	480.85922	697.96667	8.85863	583.42572	3.24325	1307.49500	-965.78625	
4668	46.670				780.27979	9.61667	-632.70892	-719.57892	6.95066	480.88342	697.87274	8.84772	583.32764	3.11930	1307.50220	-965.91736	
4669	46.680				780.21936	9.62975	-632.74158	-719.62708	6.94433	480.85547	697.86243	8.79426	583.30908	3.03361	1307.55029	-965.98572	
4670	46.690				780.28937	9.57843	-632.67664	-719.48090	6.73320	480.88669	697.90808	8.74345	583.39722	3.20566	1307.48206	-965.94348	
4671	46.700				780.24426	9.59110	-632.65051	-719.47528	6.73147	480.94135	697.88989	8.75122	583.38422	3.13694	1307.49536	-965.99670	
4672	46.710				780.26691	9.65709	-632.73450	-719.46631	6.80880	480.94922	697.83899	8.79868	583.39313	3.18538	1307.60352	-966.05170	
4673	46.720				780.31274	9.74980	-632.65057	-719.43097	6.79739	480.88983	697.84705	8.82220	583.37115	3.05115	1307.66638	-966.06354	
4674	46.730				780.19598	9.68254	-632.75305	-719.59515	6.93479	480.89221	697.87689	8.77756	583.36194	3.03911	1307.60852	-966.11517	
4675	46.740				780.29150	9.58781	-632.64117	-719.62952	6.90141	480.88434	697.89136	8.73745	583.37292	3.09890	1307.51941	-965.94507	
4676	46.750				780.36096	9.60216	-632.58459	-719.48950	6.76621	480.93051	697.84747	8.79880	583.38806	3.20551	1307.49646	-965.83405	
4677	46.760				780.27191	9.67259	-632.72925	-719.48407	6.77771	480.94885	697.82599	8.82112	583.35516	3.26942	1307.45740	-965.80261	
4678	46.770				780.30536	9.80468	-632.69952	-719.63550	6.98182	480.87842	697.78705	8.83709	583.34204	3.21160	1307.48779	-965.83167	
4679	46.780				780.27411	9.91525	-632.77557	-719.46942	6.80847	480.83505	697.87909	8.76240	583.33594	3.16156	1307.53906	-965.86780	
4680	46.790				780.30011	9.70809	-632.69434	-719.43109	6.79068	480.88815	697.99249	8.67416	583.33594	3.09174	1307.53064	-965.83411	
4681	46.800				780.32947	9.70024	-632.70508	-719.59027	6.94024	480.91904	697.97546	8.67428	583.38910	3.18439	1307.51294	-965.82208	
4682	46.810				780.23834	9.64410	-632.66119	-719.48962	6.75856	480.91602	697.82184	8.85010	583.34210	3.16234	1307.41882	-965.81110	
4683	46.820				780.26953	9.72828	-632.74500	-719.63055	6.91170	480.86606	697.94556	8.72637	583.22882	3.32695	1307.42273	-965.85870	
4684	46.830				780.30988	9.78409	-632.73962	-719.62122	6.98044	480.87851	698.39050	9.07390	583.12158	3.25105	1307.46655	-966.05878	
4685	46.840				780.19330	9.77671	-632.83875	-719.43097	6.86763	480.88434	698.12799	8.97246	583.32355	3.01989	1307.57483	-966.13568	
4686	46.850				780.33551	9.81523	-632.71790	-719.54419	6.97771	480.90817	698.18018	8.88813	583.33350	3.12610	1307.55042	-966.15613	
4687	46.860				780.27283	9.75871	-632.71594	-719.45386	6.74664	480.89725	698.09955	8.98888	583.32208	3.11460	1307.56213	-966.19318	
4688	46.870				780.18091	9.67689	-632.73560	-719.68469	6.90493	480.91406	698.09460	8.97433	583.35168	3.14356	1307.46973	-966.20264	
4689	46.880				780.29572	9.76785	-632.70276	-719.51947	6.76178	480.89963	698.13782	8.87713	583.39099	3.17544	1307.46875	-966.19556	
4690	46.890				780.27350	9.82806	-632.76843	-719.43323	6.83236	480.89902	698.17303	8.85445	583.33997	3.18989	1307.58350	-966.10406	
4691	46.900				780.30182	9.87316	-632.74652	-719.51740	6.98763	480.93533	697.81641	8.75407	583.41968	3.14115	1307.65063	-966.04321	
4692	46.910				780.28687	9.79906	-632.81421	-719.42737	6.79316	480.90433	697.86603	8.76485	583.31049	3.13039	1307.54651	-965.94031	
4693	46.920				780.22632	9.70512	-632.76807	-719.52185	6.75894	480.90579	697.77966	8.82087	583.34656	3.15765	1307.43127	-965.79327	
4694	46.930				780.20117	9.67090	-632.71588	-719.68359	6.97208	480.89407	697.84802	8.76171	583.34473	3.18320	1307.36353	-965.77374	
4695	46.940				780.19940	9.80066	-632.75562	-719.61511	7.00389	480.92612	697.89673	8.73245	583.34900	3.27874	1307.41235	-965.74536	
4696	46.950				780.28845	9.86560	-632.79474	-719.39545	6.88487	480.88760	697.99811	8.78556	583.33881	3.29894	1307.57349	-965.76855	
4697	46.960				780.28674	9.86792	-632.74805	-719.53613	6.98342	480.85779	697.95551	8.81571	583.32074	3.15780	1307.59888	-965.94379	
4698	46.970				780.23004	9.75453	-632.77924	-719.50433	6.75145	480.88278	697.86407	8.74865	583.34705	3.06940	1307.53955	-965.92432	
4699	46.980				780.26404	9.71702	-632.69928	-719.69324	6.92731	480.92035	697.86639	8.73913	583.36224	3.16713	1307.46204	-965.94000	
4700	46.990				780.30847	9.74035	-632.68396	-719.50275	6.76460	480.94809	697.93372	8.68667	583.37946	3.21153	1307.45068	-965.95227	
4701	47.000				780.23804	9.75547	-632.80615	-719.40820	6.76391	480.98831	697.93115	8.73716	583.39227	3.20139	1307.52905	-966.01105	
4702	47.010				780.21051	9.75716	-632.79596	-719.54114	6.97439	480.93518	697.86218	8.78332	583.38171	3.12924	1307.61658	-966.16443	
4703	47.020				780.25256	9.79947	-632.75336	-719.61609	6.98375	480.89258	697.12994	8.20776	583.32831	3.15438	1307.52563	-966.05872	
4704	47.030				780.22992	9.77426	-632.74451	-719.52734	6.80641	480.89554	698.13007	8.90997	583.33600	3.11441	1307.49890	-966.06671	
4705	47.040				780.29901	9.73418	-632.61853	-719.66760	6.91458	480.90958	698.15063	8.91417	583.36115	3.14851	1307.44324	-966.04456	
4706	47.050				780.22931	9.71405	-632.80475	-719.57495	6.93703	480.96536	698.16028	8.90333	583.37817	3.20846	1307.51794	-965.95221	
4707	47.060				780.26007	9.82768	-632.76471	-719.54724	6.97619	480.92117	698.11230	8.96945	583.39557	3.24725	1307.55627	-965.94543	
4708	47.070				780.31403	9.83873	-632.77551	-719.41956	6.81009	480.86304	698.14063	8.93748	583.33765	3.04653	1307.63440	-965.98389	
4709	47.080				780.31726	9.84246	-632.77417	-719.62531	6.99416	480.88535	698.11292	8.90909	583.36139	3.07383	1307.59900	-965.88989	
4710	47.090				780.16748	9.72176	-632.77026	-719.50433	6.74222	480.89404	698.15765	8.87794	583.33362	3.09903	1307.49438	-965.82568	
4711	47.100				780.20654	9.69658	-632.73737	-719.64905	6.93660	480.91190	698.15173	8.92800	583.38031	3.29051	1307.49609	-965.75861	
4712	47.110				780.20758	9.73433	-632.81219	-719.44928	6.81714	480.93326	698.13379	8.96571	583.39709	3.27649	1307.44861	-965.78571	
4713	47.120				780.21881	9.79925	-632.82013	-719.47192	6.82051	480.90723	698.12054	8.97383	583.36975	3.15457	1307.51770	-965.85120	
4714	47.130				780.34662	9.79053	-632.76215	-719.61597	6.96101	480.86285	698.99280	9.49015	583.15491	3.24717	1307.55969	-965.87354	
4715	47.140				780.27356	9.76973	-632.74298	-719.48248	6.74386	480.92548	698.42871	9.03982	583.14569	3.14411	1307.53357	-965.95166	
4716	47.150				780.22852	9.76466	-632.74127	-719.48285	6.72768	480.96667	698.15277	8.83662	583.16083	3.24808	1307.51343	-965.94830	
4717	47.160				780.19647	9.72708	-632.80310	-719.46259	6.74794	480.94113	698.15668	8.91168	583.15399	3.21420	1307.52393	-966.01990	
4718	47.170				780.26184	9.90800	-632.81818	-719.44836	6.79841	480.90628	698.35278	9.10152	583.18262	3.12727	1307.59839	-966.09406	
